<svg width="232" height="44" viewBox="0 0 232 44" fill="none" xmlns="http://www.w3.org/2000/svg">
<path d="M11.24 32.8C11.24 35.0134 10.84 36.84 10.04 38.28C9.26666 39.72 8.22666 40.84 6.92 41.64C5.64 42.4667 4.10666 43.1734 2.32 43.76L0.559998 39.12C1.73333 38.6667 2.61333 38.1467 3.2 37.56C3.78666 36.9734 4.17333 36.2934 4.36 35.52C4.57333 34.7467 4.68 33.76 4.68 32.56V9.28003H11.24V32.8Z" fill="black"/>
<path d="M27.4953 8.60003C31.442 8.60003 34.5086 9.8667 36.6953 12.4C38.9086 14.9334 40.0153 18.5067 40.0153 23.12C40.0153 26.1334 39.5086 28.7334 38.4953 30.92C37.5086 33.1067 36.0686 34.7867 34.1753 35.96C32.3086 37.1067 30.082 37.68 27.4953 37.68C24.9086 37.68 22.682 37.1067 20.8153 35.96C18.9486 34.8134 17.5086 33.16 16.4953 31C15.5086 28.8134 15.0153 26.1867 15.0153 23.12C15.0153 20.1334 15.5086 17.5467 16.4953 15.36C17.5086 13.1734 18.9486 11.5067 20.8153 10.36C22.682 9.1867 24.9086 8.60003 27.4953 8.60003ZM27.4953 13.4C25.602 13.4 24.1886 14.1734 23.2553 15.72C22.3486 17.24 21.8953 19.7067 21.8953 23.12C21.8953 26.5334 22.362 29.0134 23.2953 30.56C24.2286 32.1067 25.6286 32.88 27.4953 32.88C29.4153 32.88 30.8286 32.12 31.7353 30.6C32.6686 29.0534 33.1353 26.56 33.1353 23.12C33.1353 19.68 32.6686 17.2 31.7353 15.68C30.802 14.16 29.3886 13.4 27.4953 13.4Z" fill="black"/>
<path d="M58.1609 37L56.7209 31.04H48.6409L47.2409 37H40.4409L48.8009 9.28003H56.7609L65.1209 37H58.1609ZM49.7609 26.28H55.6009L52.6809 14.04L49.7609 26.28ZM55.1209 6.56003C54.5343 6.56003 54.0276 6.4667 53.6009 6.28003C53.1743 6.09336 52.7076 5.8267 52.2009 5.48003C51.5343 5.00003 50.9876 4.76003 50.5609 4.76003C50.1076 4.76003 49.7209 4.9067 49.4009 5.20003C49.1076 5.4667 48.7876 5.9067 48.4409 6.52003L45.2809 5.00003C45.8143 3.61336 46.5209 2.48003 47.4009 1.60003C48.3076 0.720029 49.3209 0.280029 50.4409 0.280029C51.0543 0.280029 51.5743 0.386696 52.0009 0.60003C52.4543 0.786696 52.9476 1.05336 53.4809 1.40003C53.8543 1.64003 54.1476 1.81336 54.3609 1.92003C54.6009 2.0267 54.8409 2.08003 55.0809 2.08003C55.5076 2.08003 55.8676 1.9467 56.1609 1.68003C56.4809 1.3867 56.8143 0.933362 57.1609 0.320029L60.3209 1.88003C59.7609 3.29336 59.0276 4.4267 58.1209 5.28003C57.2409 6.13336 56.2409 6.56003 55.1209 6.56003Z" fill="black"/>
<path d="M77.9641 8.60003C81.9107 8.60003 84.9774 9.8667 87.1641 12.4C89.3774 14.9334 90.4841 18.5067 90.4841 23.12C90.4841 26.1334 89.9774 28.7334 88.9641 30.92C87.9774 33.1067 86.5374 34.7867 84.6441 35.96C82.7774 37.1067 80.5507 37.68 77.9641 37.68C75.3774 37.68 73.1507 37.1067 71.2841 35.96C69.4174 34.8134 67.9774 33.16 66.9641 31C65.9774 28.8134 65.4841 26.1867 65.4841 23.12C65.4841 20.1334 65.9774 17.5467 66.9641 15.36C67.9774 13.1734 69.4174 11.5067 71.2841 10.36C73.1507 9.1867 75.3774 8.60003 77.9641 8.60003ZM77.9641 13.4C76.0707 13.4 74.6574 14.1734 73.7241 15.72C72.8174 17.24 72.3641 19.7067 72.3641 23.12C72.3641 26.5334 72.8307 29.0134 73.7641 30.56C74.6974 32.1067 76.0974 32.88 77.9641 32.88C79.8841 32.88 81.2974 32.12 82.2041 30.6C83.1374 29.0534 83.6041 26.56 83.6041 23.12C83.6041 19.68 83.1374 17.2 82.2041 15.68C81.2707 14.16 79.8574 13.4 77.9641 13.4Z" fill="black"/>
<path d="M124.673 9.28003L116.952 37H108.792L100.792 9.28003H107.713L112.993 31.88L117.952 9.28003H124.673Z" fill="black"/>
<path d="M133.285 9.28003V37H126.725V9.28003H133.285Z" fill="black"/>
<path d="M149.764 8.60003C151.497 8.60003 153.03 8.85336 154.364 9.36003C155.724 9.8667 157.004 10.6267 158.204 11.64L155.084 15.36C154.257 14.72 153.444 14.24 152.644 13.92C151.844 13.6 150.99 13.44 150.084 13.44C148.217 13.44 146.737 14.2267 145.644 15.8C144.577 17.3734 144.044 19.8 144.044 23.08C144.044 26.3067 144.577 28.7067 145.644 30.28C146.737 31.8267 148.244 32.6 150.164 32.6C151.177 32.6 152.097 32.4134 152.924 32.04C153.75 31.64 154.644 31.08 155.604 30.36L158.524 34.12C157.484 35.16 156.217 36.0134 154.724 36.68C153.257 37.3467 151.63 37.68 149.844 37.68C147.284 37.68 145.057 37.12 143.164 36C141.27 34.88 139.79 33.2267 138.724 31.04C137.684 28.8267 137.164 26.1734 137.164 23.08C137.164 20.0667 137.697 17.4667 138.764 15.28C139.857 13.0934 141.35 11.44 143.244 10.32C145.164 9.17336 147.337 8.60003 149.764 8.60003Z" fill="black"/>
<path d="M180.021 9.28003L179.381 14.32H172.541V37H165.981V14.32H158.821V9.28003H180.021Z" fill="black"/>
<path d="M192.456 8.60003C196.403 8.60003 199.47 9.8667 201.656 12.4C203.87 14.9334 204.976 18.5067 204.976 23.12C204.976 26.1334 204.47 28.7334 203.456 30.92C202.47 33.1067 201.03 34.7867 199.136 35.96C197.27 37.1067 195.043 37.68 192.456 37.68C189.87 37.68 187.643 37.1067 185.776 35.96C183.91 34.8134 182.47 33.16 181.456 31C180.47 28.8134 179.976 26.1867 179.976 23.12C179.976 20.1334 180.47 17.5467 181.456 15.36C182.47 13.1734 183.91 11.5067 185.776 10.36C187.643 9.1867 189.87 8.60003 192.456 8.60003ZM192.456 13.4C190.563 13.4 189.15 14.1734 188.216 15.72C187.31 17.24 186.856 19.7067 186.856 23.12C186.856 26.5334 187.323 29.0134 188.256 30.56C189.19 32.1067 190.59 32.88 192.456 32.88C194.376 32.88 195.79 32.12 196.696 30.6C197.63 29.0534 198.096 26.56 198.096 23.12C198.096 19.68 197.63 17.2 196.696 15.68C195.763 14.16 194.35 13.4 192.456 13.4Z" fill="black"/>
<path d="M218.033 26.4H215.473V37H208.912V9.28003H217.992C221.779 9.28003 224.619 9.97336 226.512 11.36C228.432 12.7467 229.393 14.8667 229.393 17.72C229.393 19.5067 228.966 21 228.113 22.2C227.259 23.3734 225.912 24.3734 224.072 25.2L231.113 37H223.712L218.033 26.4ZM215.473 21.88H218.232C219.699 21.88 220.792 21.5467 221.512 20.88C222.259 20.2134 222.632 19.16 222.632 17.72C222.632 16.3867 222.232 15.4134 221.432 14.8C220.659 14.1867 219.459 13.88 217.833 13.88H215.473V21.88Z" fill="black"/>
</svg>
